HIERARCHY
ROOT Hips
{
  OFFSET 2.26061 22.2878 23.7974
  CHANNELS 6 Xposition Yposition Zposition Zrotation Xrotation Yrotation
  JOINT LeftUpLeg
  {
    OFFSET 8.64259 1.95398 -2.38835
    CHANNELS 3 Zrotation Xrotation Yrotation
    JOINT LeftLeg
    {
      OFFSET 43.7702 0 0
      CHANNELS 3 Zrotation Xrotation Yrotation
      JOINT LeftFoot
      {
        OFFSET 40.6238 0 0
        CHANNELS 3 Zrotation Xrotation Yrotation
        JOINT LeftToeBase
        {
          OFFSET 12.7242 0 0
          CHANNELS 3 Zrotation Xrotation Yrotation
          End Site
          {
            OFFSET 0 0 0
          }
        }
      }
    }
  }
  JOINT RightUpLeg
  {
    OFFSET -8.2249 1.95398 -2.59336
    CHANNELS 3 Zrotation Xrotation Yrotation
    JOINT RightLeg
    {
      OFFSET 43.5653 0 0
      CHANNELS 3 Zrotation Xrotation Yrotation
      JOINT RightFoot
      {
        OFFSET 40.6238 0 0
        CHANNELS 3 Zrotation Xrotation Yrotation
        JOINT RightToeBase
        {
          OFFSET 12.7242 0 0
          CHANNELS 3 Zrotation Xrotation Yrotation
          End Site
          {
            OFFSET 0 0 0
          }
        }
      }
    }
  }
  JOINT Spine
  {
    OFFSET 0.165834 0.87714 6.61349
    CHANNELS 3 Zrotation Xrotation Yrotation
    JOINT Spine1
    {
      OFFSET 7.38963 1.71661e-005 0
      CHANNELS 3 Zrotation Xrotation Yrotation
      JOINT Spine2
      {
        OFFSET 11.9445 1.14441e-005 0
        CHANNELS 3 Zrotation Xrotation Yrotation
        JOINT Spine3
        {
          OFFSET 14.7254 4.19617e-005 0
          CHANNELS 3 Zrotation Xrotation Yrotation
          JOINT Spine4
          {
            OFFSET 10.9679 0 0
            CHANNELS 3 Zrotation Xrotation Yrotation
            JOINT RightShoulder
            {
              OFFSET 2.46616 -1.6653 3.69651
              CHANNELS 3 Zrotation Xrotation Yrotation
              JOINT RightArm
              {
                OFFSET 13.0012 0 0
                CHANNELS 3 Zrotation Xrotation Yrotation
                JOINT RightForeArm
                {
                  OFFSET 28.7848 1.52588e-005 0
                  CHANNELS 3 Zrotation Xrotation Yrotation
                  JOINT RightHand
                  {
                    OFFSET 26.5688 1.52588e-005 0
                    CHANNELS 3 Zrotation Xrotation Yrotation
                    End Site
                    {
                      OFFSET 0 0 0
                    }
                  }
                }
              }
            }
            JOINT LeftShoulder
            {
              OFFSET 2.38034 -1.29275 -3.7523
              CHANNELS 3 Zrotation Xrotation Yrotation
              JOINT LeftArm
              {
                OFFSET 16.3182 6.10351e-005 0
                CHANNELS 3 Zrotation Xrotation Yrotation
                JOINT LeftForeArm
                {
                  OFFSET 27.0901 0 0
                  CHANNELS 3 Zrotation Xrotation Yrotation
                  JOINT LeftHand
                  {
                    OFFSET 24.5451 1.52588e-005 0
                    CHANNELS 3 Zrotation Xrotation Yrotation
                    End Site
                    {
                      OFFSET 0 0 0
                    }
                  }
                }
              }
            }
            JOINT Neck
            {
              OFFSET 5.0226 -0.0266342 0
              CHANNELS 3 Zrotation Xrotation Yrotation
              JOINT Head
              {
                OFFSET 6.69363 2.86102e-005 0
                CHANNELS 3 Zrotation Xrotation Yrotation
                End Site
                {
                  OFFSET 0 0 0
                }
              }
            }
          }
        }
      }
    }
  }
}
MOTION
Frames:	18
Frame Time:	0.0416667
68.8857 82.3279 22.1501 -89.5311 -68.6793 -95.9781 179.899 35.2149 101.6 -53.7142 29.642 4.88354 62.9178 5.53199 7.29321 50.9886 18.1443 3.90859 -174.524 41.7765 91.0389 -79.8073 3.88386 -5.19435 78.834 -10.4288 -4.601 44.0026 -0.00579827 -11.1751 -0.0880034 8.98082 -89.0039 8.90577 0.268141 1.95358 -2.76661 0.353852 1.93989 -25.2902 -0.331263 1.94388 -5.2775 -0.331267 1.94387 92.1783 -56.0081 -96.3886 14.384 -13.6765 -7.97387 -30.593 -23.1796 -73.4862 -41.4873 -2.02718 3.05454 -91.2302 -41.3646 74.6723 -8.57739 -21.0709 21.0121 11.5146 0.845645 -69.1681 13.8187 1.02061 3.45593 -6.79557 -39.3783 5.12693 -15.4225 -36.2588 -40.8832 
69.2066 81.7883 21.5921 -87.2094 -68.0327 -93.2615 -179.514 37.4871 102.764 -54.947 31.1582 4.16802 61.5091 4.64606 9.45746 52.9265 19.2626 1.92926 -176.23 43.5517 92.4275 -83.5617 4.92584 -4.22956 77.253 -10.2245 -4.66165 44.797 -0.0944613 -11.8199 -0.222247 9.02193 -88.9209 8.82473 0.036443 2.1333 -2.84795 0.130272 2.12963 -25.3699 -0.606245 2.04571 -5.35722 -0.60625 2.0457 92.8089 -56.1166 -95.465 20.2839 -8.93971 -1.4815 -26.069 -26.3421 -63.5183 -42.0427 -2.85455 4.99142 -91.4596 -41.8732 74.4407 -9.11024 -19.4439 15.0496 16.2338 -0.658563 -88.0759 11.529 0.743979 2.46729 -7.96232 -38.0147 4.46852 -14.433 -35.0811 -41.0103 
69.1817 81.3589 20.92 -85.7393 -66.2338 -91.7703 -179.301 38.3015 103.726 -55.3022 30.0897 3.98137 61.4763 4.57307 8.69273 52.8633 19.4242 2.81624 -177.156 44.5915 92.7638 -86.598 6.47278 -3.75378 76.3574 -10.2982 -4.77245 44.6278 0.00203233 -10.6481 -0.329372 9.06977 -88.8806 8.73055 -0.160331 2.22545 -2.9423 -0.0622518 2.23033 -25.4638 -0.821614 2.0745 -5.45115 -0.821611 2.07449 93.0948 -56.5968 -94.9805 20.5796 -6.1807 1.68439 -13.2104 -25.8843 -49.4563 -41.2855 -3.20171 5.29662 -91.9728 -42.2307 73.709 -14.0528 -11.743 6.11543 19.1854 -5.80816 -100.041 6.56215 0.276667 0.424625 -9.4992 -37.109 4.09548 -13.2495 -34.4512 -41.3564 
68.7863 81.2082 20.2588 -84.8314 -62.8161 -91.3869 -178.691 37.568 104.251 -54.6626 28.7855 3.91791 61.2644 4.48293 8.64669 52.8263 19.7542 4.30658 -176.952 45.4449 91.3661 -88.9454 7.88346 -3.67097 74.8479 -10.1155 -4.82068 44.4565 0.140573 -8.85647 -0.387014 9.00788 -88.9293 8.85615 -0.295646 2.13941 -2.81656 -0.201238 2.15033 -25.3397 -0.924839 1.95177 -5.32703 -0.92485 1.95178 92.9128 -56.2713 -95.2917 19.4314 -4.10586 5.19914 -6.88323 -24.1856 -39.7646 -40.8008 -3.23446 5.15822 -93.3576 -44.3285 72.1156 -16.2713 2.95444 -2.73642 22.7351 -10.3234 -104.063 4.22527 0.194058 0.524727 -8.09082 -36.6666 5.92123 -13.1857 -34.1001 -41.3478 
67.7664 81.5865 19.5718 -85.1402 -57.4236 -93.3761 -176.865 33.8753 103.625 -51.3312 27.2628 3.64803 59.9216 3.81061 10.4727 53.611 20.3974 4.27069 -176.505 45.8996 88.264 -90.25 9.22606 -3.75588 73.5531 -9.70133 -4.72609 43.6428 0.17017 -8.78083 -0.457384 8.86947 -88.9281 9.1342 -0.432692 2.15347 -2.53849 -0.337537 2.17042 -25.0623 -1.05979 1.92403 -5.04959 -1.0598 1.92402 93.343 -55.3287 -94.8181 18.2758 -2.58842 8.83424 -6.6072 -24.3752 -37.4077 -40.8525 -3.2394 5.17172 -95.4709 -45.9017 69.3272 -16.542 15.2493 -7.13674 27.4059 -13.9635 -103.012 0.984808 0.040811 0.0733991 -5.88969 -36.0432 7.57607 -11.7693 -34.1548 -39.3238 
65.4323 82.81 18.9393 -84.2155 -49.4022 -95.574 -173.637 26.8533 102.774 -43.2024 23.1785 2.82343 58.4959 2.30516 6.92815 52.6593 20.2975 7.05936 -177.941 46.2617 85.463 -89.2271 9.76503 -3.56805 73.5546 -9.19787 -4.47684 43.2481 -0.0641434 -12.6655 -0.48807 8.55889 -88.938 9.75593 -0.492157 2.14541 -1.91672 -0.397275 2.16499 -24.4409 -1.11409 1.89847 -4.42827 -1.11409 1.89846 93.5792 -54.2129 -94.6451 16.5446 -3.52322 12.4439 -5.90277 -21.0892 -40.9698 -41.1104 -3.07715 4.43327 -97.2848 -47.9786 67.275 -17.0052 20.8674 -4.24947 32.4459 -15.3096 -100.792 -1.84718 -0.065242 1.14468 -3.7022 -35.0893 10.9012 -10.488 -33.9424 -38.0062 
61.6588 84.6861 17.9792 -82.7657 -38.9189 -97.5434 -169.362 18.1343 102.965 -32.3763 16.5488 1.09206 52.851 -2.91258 0.127452 52.0348 20.2695 9.12452 177.443 45.4705 85.6148 -84.5178 8.99351 -2.61411 74.2969 -8.64061 -4.15283 43.9591 -0.00546389 -11.3908 -0.302867 8.13695 -89.0207 10.5973 -0.152834 1.96091 -1.07514 -0.0663926 1.96574 -23.5997 -0.734999 1.82442 -3.5871 -0.735005 1.82441 94.1693 -53.4956 -93.8833 15.5359 -4.60242 14.3038 -6.81656 -19.6755 -45.9974 -41.7012 -2.79452 3.50266 -96.8957 -49.6556 68.4123 -19.5265 21.9005 2.10545 33.2034 -11.4403 -93.7204 2.86561 0.20442 1.94176 -3.05476 -33.2146 13.9305 -7.68562 -33.2238 -34.8857 
56.789 86.2472 16.1372 -81.4193 -30.5711 -100.249 -168.08 9.99954 102.749 -22.2462 9.68256 0.805592 41.1995 -9.52451 -9.88851 45.0833 15.1459 16.9633 171.244 42.6529 86.31 -77.3648 5.80823 -0.52647 73.8192 -7.15604 -3.49111 42.4363 0.162873 -10.1696 -0.26052 7.88074 -89.1134 11.1091 -0.106992 1.77398 -0.56309 -0.0288185 1.77696 -23.0894 -0.635113 1.65988 -3.07675 -0.63512 1.65987 95.9976 -54.7106 -91.0315 13.0673 -5.33196 13.1988 -7.35929 -17.3557 -51.8615 -43.0794 -2.72898 2.97376 -94.7362 -48.9404 71.3854 -23.7923 20.0216 7.4492 34.2752 1.34069 -89.1636 10.2513 1.05231 5.74685 -2.71161 -30.7954 14.811 -2.96212 -32.0901 -30.5014 
51.3669 86.4641 13.511 -78.0591 -23.2059 -101.063 -171.287 9.68917 101.28 -25.4557 9.96975 2.66489 38.4368 -11.8171 -7.34941 33.6763 3.29466 16.5002 167.745 39.6293 88.8247 -72.1959 5.77484 1.816 74.3316 -6.88694 -3.36726 45.6993 0.384954 -5.63348 -0.214943 7.73947 -89.3907 11.3956 -0.143279 1.22988 -0.275859 -0.0890027 1.23499 -22.8071 -0.506249 1.13 -2.79449 -0.506278 1.12998 96.3316 -55.85 -90.4251 9.93887 -4.07292 10.373 -7.54223 -13.4883 -59.6671 -44.091 -2.48685 1.91249 -94.0744 -48.9919 72.3864 -26.5982 15.5692 11.1721 28.3946 6.72704 -72.2009 20.3809 2.40439 7.97172 -0.218775 -28.4534 15.0359 2.06124 -30.8988 -25.1141 
46.7296 85.7767 10.3699 -75.9743 -15.0203 -102.425 -173.972 15.3159 98.6208 -41.7198 12.4471 3.1342 45.0928 -7.93591 -0.177833 29.4106 -1.04725 14.9776 169.039 35.0782 90.8067 -68.0503 5.72436 1.73045 81.7262 -9.08581 -3.80461 41.9757 0.725435 1.29138 -0.0323729 7.86427 -89.5637 11.144 0.138251 0.854978 -0.527259 0.175729 0.848057 -23.0602 -0.125089 0.856997 -3.04753 -0.125104 0.856991 97.0451 -56.8105 -89.3077 7.49938 -2.6857 5.48306 -11.3414 -10.1689 -71.9234 -50.1068 -1.84017 -0.221589 -94.0883 -49.2404 72.4368 -28.0782 13.0027 15.9187 15.5668 9.92498 -58.4419 24.9343 2.95409 8.11681 2.83635 -26.2633 14.9872 6.04714 -29.4896 -21.4847 
42.3266 84.6957 7.69041 -72.7025 -4.84808 -102.694 -173.666 26.3479 95.9477 -60.672 13.5376 1.276 46.8776 -7.08005 0.281218 31.9224 1.73242 12.1364 173.8 32.573 93.4902 -66.3304 1.18473 -0.535783 80.2185 -8.88485 -3.82817 47.5708 0.914105 -0.400982 0.53295 8.00255 -89.7896 10.867 1.15844 0.31022 -0.803442 1.17098 0.25893 -23.3416 1.01165 0.644073 -3.32894 1.01166 0.644064 96.3346 -53.7574 -90.6416 7.79175 -1.6348 -0.549356 -18.9801 -2.43484 -84.6125 -46.7614 -1.99192 0.677147 -94.2801 -50.4114 72.4857 -29.8247 12.4811 22.3744 4.9301 4.86813 -50.4349 25.642 2.66724 6.65463 7.11725 -23.9953 17.366 8.68621 -28.3176 -19.5423 
37.0301 84.154 3.86071 -70.634 2.61825 -104.465 -170.555 38.6923 91.1842 -73.5388 19.4695 -0.723292 49.2301 -5.67003 1.61538 34.7687 4.52046 11.2194 175.835 25.9864 94.6584 -59.7575 -0.212661 -1.50829 82.0644 -9.88341 -4.08712 47.5052 1.06891 1.32547 0.994752 8.00967 -89.6873 10.8537 2.12517 0.422315 -0.815543 2.14168 0.328318 -23.362 1.89999 1.0417 -3.34938 1.89997 1.04168 95.0126 -50.98 -92.9635 7.90938 -1.03467 -5.66595 -29.7237 -1.79115 -96.8719 -48.1108 -1.96814 1.22155 -93.0415 -48.5462 73.811 -34.8933 14.2753 31.2578 11.7795 11.531 -51.7277 22.9724 2.37289 6.55089 6.94524 -22.333 17.8113 11.1977 -26.9746 -17.8732 
30.4847 84.9885 -0.629916 -69.5014 7.63615 -107.787 -164.631 48.8154 82.4148 -75.889 21.8761 -2.57761 52.6345 -3.62721 0.86996 38.3487 7.93804 11.4404 177.232 17.2775 93.0796 -50.3587 -4.33578 -3.40498 78.7062 -8.74408 -3.9407 45.565 0.988955 1.79403 1.3312 7.99574 -89.3585 10.8712 2.94697 0.999695 -0.796668 2.9881 0.868921 -23.3495 2.51025 1.83954 -3.33681 2.51027 1.83955 94.315 -48.0647 -94.4855 7.79176 -2.0176 -9.78475 -36.0306 3.99698 -101.491 -50.9297 -2.64378 2.86759 -92.5784 -46.77 74.0337 -39.5947 15.9333 40.3071 12.6329 10.0499 -56.2995 20.2915 1.57874 3.92333 7.24759 -22.0598 18.5469 10.506 -26.8355 -18.3638 
22.7076 87.2732 -5.78165 -68.5206 10.0674 -108.707 -161.033 55.2463 75.578 -67.1338 24.541 -4.48912 54.8781 -2.92424 0.514714 43.0837 12.5867 12.6825 178.038 8.56851 92.6247 -37.6444 -12.4594 -4.90784 62.2991 -2.59522 -1.55972 45.3792 1.3047 5.84171 1.56901 7.96024 -89.1739 10.9348 3.50601 1.31159 -0.731911 3.56034 1.15586 -23.2905 2.9497 2.30523 -3.27785 2.94971 2.30522 94.0318 -45.4803 -95.3706 9.96727 -4.75319 -10.7639 -36.3294 5.01071 -101.045 -46.8329 -2.72961 3.54197 -92.9872 -44.0942 72.6315 -43.3036 16.828 43.8914 15.0791 10.838 -59.1907 20.7166 1.64394 4.10644 10.7215 -21.6388 17.9364 6.95006 -26.2065 -18.0129 
14.0661 89.6778 -11.4657 -66.2788 13.705 -109.483 -158.223 56.159 72.887 -51.1909 25.0706 -8.39167 58.4206 -0.5263 3.67677 46.4348 16.4227 16.0216 177.924 3.38457 91.9092 -27.8277 -20.9397 -5.75142 41.5138 5.04584 4.69299 34.5798 0.402485 6.10198 1.87887 7.94965 -88.9492 10.9441 4.22675 1.69018 -0.720797 4.29705 1.50223 -23.2883 3.52339 2.88325 -3.27561 3.52339 2.88324 92.8071 -44.8338 -97.4984 12.5695 -6.18115 -9.33621 -32.9379 -0.345397 -97.0393 -39.0726 -1.77899 1.85252 -95.3444 -43.888 68.8541 -42.7629 17.5256 42.8679 14.6817 9.48582 -60.7986 21.8656 1.54901 3.25395 14.899 -20.4849 19.0512 3.05711 -25.4745 -20.29 
5.35914 90.2636 -17.0121 -65.4025 17.4805 -106.265 -159.816 54.5408 77.2311 -42.9756 23.8992 -9.88594 57.8882 -1.13188 4.59883 48.5075 18.6189 16.5681 179.314 4.92475 95.2655 -34.3652 -16.3465 -4.66564 38.5694 5.60222 5.61022 22.1557 -0.100047 -2.60576 1.93689 8.04137 -89.1535 10.772 4.24716 1.28824 -0.892441 4.29974 1.09975 -23.4666 3.66355 2.50642 -3.45396 3.66353 2.50641 91.7311 -45.6696 -99.0755 14.2619 -9.62662 -9.15488 -26.0825 -6.51247 -88.9735 -30.5004 -1.64226 2.02632 -97.9691 -45.9771 65.5333 -38.5133 15.479 39.6829 15.7047 7.1837 -64.7165 23.7585 1.7362 3.48202 16.5004 -18.3062 18.3908 3.42892 -23.5812 -21.1939 
-3.38825 89.207 -23.1092 -66.8119 19.9544 -103.956 -165.076 47.8878 82.2499 -47.0357 16.7547 -6.63254 66.3048 6.47744 6.34749 42.4348 11.1372 4.05104 178.767 12.3883 97.2304 -53.2602 -2.20926 -2.44745 42.1757 3.16269 3.13917 19.7533 0.0422911 -3.42086 1.49843 8.2195 -89.1455 10.4144 3.37683 1.40129 -1.25275 3.43522 1.25116 -23.8079 2.7996 2.3518 -3.79525 2.7996 2.35181 91.2 -48.9238 -99.2142 16.3889 -12.9176 -6.52251 -22.0338 -12.924 -78.8808 -19.8186 -1.14803 1.78991 -100.013 -47.0115 62.8559 -33.2864 13.1705 35.4032 14.0558 4.02517 -68.6007 26.0267 1.98458 3.82086 12.0837 -16.3886 11.7163 10.1582 -20.6026 -18.2756 
-11.7212 87.9446 -29.1248 -68.0241 22.0608 -105.976 -166.93 40.1531 82.9358 -49.7085 15.268 -5.03225 67.7181 10.1017 12.7754 48.486 15.5194 0.801811 176.985 26.9095 94.8676 -75.9888 6.37639 -1.70173 46.3651 0.229299 0.506784 20.5833 0.29277 -5.16507 0.796419 8.35501 -88.7841 10.1381 2.14146 2.23385 -1.53282 2.2377 2.13745 -24.0594 1.37139 2.77388 -4.04678 1.37139 2.77388 91.0561 -51.5881 -98.8704 19.052 -15.9909 0.791658 -20.2944 -19.0895 -71.6041 -19.4628 -1.19554 2.19833 -101.775 -49.2779 61.1636 -24.546 12.5758 28.0712 14.0477 2.72359 -72.2461 29.7457 2.34127 4.06365 13.0402 -13.368 8.72295 11.088 -16.9082 -15.4074 
